<svg width="256" height="256" viewBox="0 0 256 256" fill="none" xmlns="http://www.w3.org/2000/svg">
<path d="M112.944 76.5851L79.1345 55.3475M112.944 76.5851L78.3153 87.0686C73.9477 88.3908 70.8664 90.8946 69.7656 94.0161L62.0209 115.975C59.0943 124.274 43.4781 126.626 32.2493 120.46L23.8214 115.832C16.8071 111.98 13.8948 105.939 16.6823 101.024L33.6989 71.0169C35.2132 68.3467 38.2732 66.2795 42.31 65.1995L79.1345 55.3475M112.944 76.5851L149.141 99.3224C155.435 103.276 164.317 104.575 171.292 102.563L173.608 101.895C179.63 100.157 183.174 96.245 182.841 91.7009L181.677 75.8079L177.079 55.2663C176.555 52.9241 175.036 50.6237 172.695 48.6287L156.389 34.7315C154.991 33.5394 153.326 32.4794 151.464 31.5959L142.588 27.383C129.218 21.0367 113.97 16.9367 98.4859 15.5241L85.9644 14.3818C84.3523 14.2347 82.7494 14.2188 81.1934 14.3343L51.935 16.5065C39.1502 17.894 35.9953 28.2494 46.3715 34.7672L79.1345 55.3475" stroke="white" stroke-width="6"/>
<path d="M144.617 181.423L179.291 201.574M144.617 181.423L178.785 169.848C183.094 168.388 186.069 165.788 187.039 162.634L193.861 140.444C196.44 132.058 211.947 129.212 223.426 135.018L232.042 139.376C239.212 143.003 242.375 148.947 239.794 153.947L224.042 184.474C222.64 187.191 219.668 189.354 215.679 190.561L179.291 201.574M144.617 181.423L107.494 159.849C101.039 156.097 92.1091 155.081 85.2227 157.313L82.9364 158.054C76.9905 159.982 73.6129 164.004 74.1351 168.534L75.9615 184.38L81.4139 204.762C82.0356 207.086 83.6503 209.337 86.0728 211.256L102.948 224.627C104.395 225.774 106.103 226.78 108.001 227.604L117.046 231.533C130.673 237.451 146.082 241.065 161.615 241.985L174.176 242.729C175.793 242.825 177.395 242.79 178.946 242.626L208.094 239.527C220.812 237.735 223.533 227.286 212.891 221.102L179.291 201.574" stroke="white" stroke-width="6"/>
</svg>
